<svg width="26" height="26" xmlns="http://www.w3.org/2000/svg">

 <title width="0" height="0"/>
 <desc width="0" height="0">Created with Sketch.</desc>
 <g fill-rule="evenodd" fill="none" id="imagebot_1" width="0" height="0">
  <polygon fill-rule="evenodd" fill="none" points="0 0 26 0 26 26 0 26" id="imagebot_7" width="0" height="0"/>
  <g fill-rule="evenodd" fill="#0be0cb" transform="matrix(1 0 0 1 2 2)" id="imagebot_3" width="0" height="0">
   <g id="imagebot_4" width="0" height="0">
    <polygon fill="#7d7d4b" points="18.178 10.734 16.822 9.265 12 13.716 12 0 10 0 10 13.716 5.178 9.266 3.822 10.734 11 17.361" id="imagebot_6" width="0" height="0"/>
    <polygon fill="#7d7d4b" points="20 15 20 20 2 20 2 15 0 15 0 22 22 22 22 15" id="imagebot_5" width="0" height="0"/>
   </g>
  </g>
  <title width="0" height="0">imagebot_1</title>
 </g>
</svg>