<svg width="22" height="22" xmlns="http://www.w3.org/2000/svg">

 <title width="0" height="0"/>
 <desc width="0" height="0">Created with Sketch.</desc>
 <g fill-rule="evenodd" fill="none" id="imagebot_1" width="0" height="0">
  <g fill-rule="nonzero" fill="#0be0cb" transform="translate(-1 -11) translate(1 11)" id="imagebot_2" width="0" height="0">
   <g id="imagebot_7" width="0" height="0">
    <path fill="#7d7d4b" id="imagebot_8" d="M10,8L0,8L0,0L10,0L10,8zM2,6L8,6L8,2L2,2L2,6z" width="0" height="0"/>
   </g>
   <g transform="translate(12.000000, 0.000000)" id="imagebot_5" width="0" height="0">
    <path fill="#7d7d4b" id="imagebot_6" d="M10,22L0,22L0,0L10,0L10,22zM2,20L8,20L8,2L2,2L2,20z" width="0" height="0"/>
   </g>
   <g transform="translate(0.000000, 10.000000)" id="imagebot_3" width="0" height="0">
    <path fill="#7d7d4b" id="imagebot_4" d="M10,12L0,12L0,0L10,0L10,12zM2,10L8,10L8,2L2,2L2,10z" width="0" height="0"/>
   </g>
  </g>
  <title width="0" height="0">imagebot_1</title>
 </g>
</svg>