<svg width="22" height="22" xmlns="http://www.w3.org/2000/svg">

 <title width="0" height="0"/>
 <desc width="0" height="0">Created with Sketch.</desc>
 <g fill-rule="evenodd" fill="none" id="imagebot_1" width="0" height="0">
  <g fill-rule="nonzero" fill="#0be0cb" transform="translate(-1 -13) translate(1 13)" id="imagebot_2" width="0" height="0">
   <g id="imagebot_3" width="0" height="0">
    <g id="imagebot_6" width="0" height="0">
     <path fill="#7d7d4b" id="imagebot_7" d="M13.9,22L8.1,22L7.787,18.864L7.72,18.837L5.281,20.837L1.167,16.725L3.167,14.285L3.139,14.219L0,13.9L0,8.1L3.135,7.786L3.163,7.72L1.163,5.28L5.276,1.168L7.715,3.168L7.782,3.141L8.1,0L13.9,0L14.213,3.136L14.28,3.163L16.719,1.163L20.828,5.27L18.828,7.71L18.856,7.776L22,8.1L22,13.9L18.865,14.214L18.837,14.28L20.837,16.72L16.728,20.827L14.289,18.827L14.222,18.854L13.9,22zM9.9,20L12.1,20L12.361,17.39L12.987,17.19C13.32871,17.08012 13.66055,16.94163 13.979,16.776L14.562,16.476L16.595,18.14L18.143,16.591L16.479,14.556L16.779,13.972C16.9446,13.65423 17.0831,13.32306 17.193,12.982L17.393,12.357L20,12.1L20,9.9L17.39,9.639L17.19,9.014C17.0801,8.67294 16.9416,8.34177 16.776,8.024L16.476,7.44L18.138,5.41L16.59,3.861L14.557,5.525L13.974,5.225C13.65555,5.05937 13.32371,4.92088 12.982,4.811L12.356,4.611L12.1,2L9.9,2L9.639,4.61L9.013,4.81C8.67129,4.91988 8.33945,5.05837 8.021,5.224L7.438,5.524L5.41,3.861L3.862,5.41L5.526,7.445L5.226,8.029C5.0604,8.34677 4.9219,8.67794 4.812,9.019L4.612,9.644L2,9.9L2,12.1L4.61,12.361L4.81,12.986C4.9199,13.32706 5.0584,13.65823 5.224,13.976L5.524,14.56L3.862,16.59L5.41,18.139L7.443,16.475L8.026,16.775C8.34445,16.94063 8.67629,17.07912 9.018,17.189L9.644,17.389L9.9,20z" width="0" height="0"/>
    </g>
    <g transform="translate(7.000000, 7.000000)" id="imagebot_4" width="0" height="0">
     <path fill="#7d7d4b" id="imagebot_5" d="M4,8C1.79086,8 0,6.20914 0,4C0,1.79086 1.79086,0 4,0C6.20914,0 8,1.79086 8,4C8,5.06087 7.57857,6.07828 6.82843,6.82843C6.07828,7.57857 5.06087,8 4,8zM4,2C2.89543,2 2,2.89543 2,4C2,5.10457 2.89543,6 4,6C5.10457,6 6,5.10457 6,4C6,2.89543 5.10457,2 4,2z" width="0" height="0"/>
    </g>
   </g>
  </g>
  <title width="0" height="0">imagebot_1</title>
 </g>
</svg>