<svg width="22" height="22" xmlns="http://www.w3.org/2000/svg">

 <title width="0" height="0"/>
 <desc width="0" height="0">Created with Sketch.</desc>
 <g fill-rule="evenodd" fill="none" id="imagebot_1" width="0" height="0">
  <g fill-rule="evenodd" fill="#0be0cb" transform="translate(-0.999998 -7) translate(1 7)" id="imagebot_2" width="0" height="0">
   <path fill="#7d7d4b" fill-rule="nonzero" id="imagebot_4" d="M20.40748,15.35106C20.79595,14.26939 20.99323,13.12837 20.99048,11.97906C20.96672,7.59826 18.11424,3.73512 13.93448,2.42306C13.65862,1.01542 12.42489,0 10.99048,0C9.55606,0 8.32234,1.01542 8.04648,2.42306C5.4378,3.22782 3.2712,5.06352 2.04895,7.50462C0.8267,9.94572 0.65494,12.78023 1.57348,15.35106C0.53698,15.9092 -0.0759,17.02326 0.00756,18.19752C0.09102,19.37178 0.85531,20.38797 1.96033,20.7939C3.06535,21.19983 4.30571,20.92005 5.12948,20.07906C8.62508,22.61578 13.35587,22.61578 16.85148,20.07906C17.67401,20.92576 18.91739,21.2099 20.02606,20.80453C21.13472,20.39916 21.90157,19.38001 21.98396,18.20244C22.06635,17.02487 21.44889,15.90886 20.40748,15.35306L20.40748,15.35106zM10.99048,1.97906C11.54276,1.97906 11.99048,2.42677 11.99048,2.97906C11.99048,3.53134 11.54276,3.97906 10.99048,3.97906C10.43819,3.97906 9.99048,3.53134 9.99048,2.97906C9.99048,2.42677 10.43819,1.97906 10.99048,1.97906zM2.99048,18.97906C2.43819,18.97906 1.99048,18.53134 1.99048,17.97906C1.99048,17.42677 2.43819,16.97906 2.99048,16.97906C3.54276,16.97906 3.99048,17.42677 3.99048,17.97906C3.99048,18.53134 3.54276,18.97906 2.99048,18.97906zM10.99048,19.97906C9.16168,19.97743 7.38887,19.34801 5.96848,18.19606C5.96848,18.12306 5.99048,18.05306 5.99048,17.97906C5.98962,16.5626 4.99816,15.33974 3.61248,15.04606C2.75769,13.0113 2.7849,10.7132 3.68763,8.69926C4.59036,6.68532 6.28777,5.13587 8.37548,4.42006C8.89502,5.3798 9.89863,5.97774 10.98998,5.97774C12.08132,5.97774 13.08493,5.3798 13.60448,4.42006C16.81619,5.54918 18.97196,8.57469 18.99048,11.97906C18.98946,13.03261 18.77799,14.07535 18.36848,15.04606C16.98279,15.33974 15.99133,16.5626 15.99048,17.97906C15.99048,18.05306 16.00748,18.12306 16.01248,18.19606C14.59217,19.34816 12.8193,19.97759 10.99048,19.97906zM18.99048,18.97906C18.43819,18.97906 17.99048,18.53134 17.99048,17.97906C17.99048,17.42677 18.43819,16.97906 18.99048,16.97906C19.54276,16.97906 19.99048,17.42677 19.99048,17.97906C19.99048,18.53134 19.54276,18.97906 18.99048,18.97906z" width="0" height="0"/>
   <polygon fill="#7d7d4b" points="15.9904761 15.9790563 15.9904761 7.62805633 10.9904761 11.6910563 5.99047613 7.62805633 5.99047613 15.9790563 7.99047613 15.9790563 7.99047613 11.8300563 10.9904761 14.2680563 13.9904761 11.8310563 13.9904761 15.9790563" id="imagebot_3" width="0" height="0"/>
  </g>
  <title width="0" height="0">imagebot_1</title>
 </g>
</svg>