<svg xmlns="http://www.w3.org/2000/svg" width="100" height="100" viewBox="0 0 100 100"  xmlns:xlink="http://www.w3.org/1999/xlink"><rect id="svgEditorBackground" x="0" y="0" width="100" height="100" style="fill:none;stroke:none;"/>
    <defs>
        <style type="text/css">
            .cls-1{fill:#413d4a;}.cls-2{fill:#a09ea5}.cls-3{fill:none}
        </style>
    </defs>
    <g id="ic_empty_dark_peers">
        
        <path id="Rectangle_4705" d="M0,0h100v100h-100Z" class="cls-3" data-name="Rectangle 4705"/>
    <g id="Group_9048" data-name="Group 9048">
                <circle id="Ellipse_633" cx="11.8277" cy="11.8276" r="12" class="cls-1" data-name="Ellipse 633" transform="translate(38 38)" style="fill:#35A18F;"/>
                <circle id="Ellipse_634" cx="8.34483528137207" cy="7.31033992767334" r="8" class="cls-1" data-name="Ellipse 634" transform="translate(42 8)" style="fill:#35A18F;"/>
                <circle id="Ellipse_635" cx="8" cy="8" r="8" class="cls-1" data-name="Ellipse 635" transform="translate(42 76)" style="fill:#35A18F;"/>
                <circle id="Ellipse_636" cx="7.482757568359375" cy="8.344827651977539" r="8" class="cls-1" data-name="Ellipse 636" transform="translate(12.555 25)" style="fill:#35A18F;"/>
                <circle id="Ellipse_637" cx="8" cy="8" r="8" class="cls-1" data-name="Ellipse 637" transform="translate(71.445 59)" style="fill:#35A18F;"/>
                <circle id="Ellipse_638" cx="8.344827651977539" cy="6.965517997741699" r="8" class="cls-1" data-name="Ellipse 638" transform="translate(12.555 59)" style="fill:#35A18F;"/>
                <circle id="Ellipse_639" cx="8" cy="8" r="8" class="cls-1" data-name="Ellipse 639" transform="translate(71.445 25)" style="fill:#35A18F;"/>
            </g><path id="Path_18999" d="M83.7725862068965,59.033586206896565a8.983,8.983,0,0,0,-3.5,-1.1409999999999911v-10.064999999999984h-2v10.06599999999996a9.028,9.028,0,0,0,-6.236999999999966,3.60000000000003l-10.500000000000021,-6.061000000000021a12.835,12.835,0,0,0,0,-11.211999999999989l10.500000000000021,-6.061a9.028,9.028,0,0,0,6.23599999999999,3.6000000000000156v2.068000000000005h2v-2.0640000000000285a9,9,0,1,0,-8.244000000000028,-14.272999999999989l-13.957999999999991,-8.063000000000002a9,9,0,1,0,-16.48399999999998,0l-13.957999999999998,8.063000000000002a9,9,0,1,0,-8.244,14.272999999999989v10.064000000000028h2v-10.066000000000038a9.032,9.032,0,0,0,6.236999999999995,-3.599999999999959l10.5,6.059999999999988a12.839,12.839,0,0,0,0,11.213999999999963l-10.5,6.060000000000024a9.028,9.028,0,0,0,-6.236999999999995,-3.6000000000000085v-2.068000000000019h-2v2.065000000000005a9,9,0,1,0,8.244,14.271999999999984l13.957999999999998,8.063000000000017a9,9,0,1,0,16.484000000000044,0l13.957999999999927,-8.063000000000017a9,9,0,1,0,11.745000000000005,-13.130999999999958ZM49.827586206896534,60.82758620689652a11,11,0,1,1,11.000000000000014,-10.999999999999964a11.013,11.013,0,0,1,-11.000000000000014,10.999999999999964ZM75.7725862068965,26.76558620689654a7,7,0,1,1,-3.2609999999999673,4.250000000000018a6.986,6.986,0,0,1,3.2609999999999673,-4.250000000000007ZM49.827586206896534,8.827586206896534a7,7,0,1,1,-7.000000000000014,7.0000000000000036a7.008,7.008,0,0,1,7.000000000000014,-7ZM26.444586206896524,36.327586206896534a7,7,0,0,1,-12.822999999999992,-1.6880000000000024a6.953,6.953,0,0,1,0.7000000000000028,-5.311999999999998a7,7,0,0,1,9.56200000000001,-2.561999999999994a7,7,0,0,1,2.5609999999999786,9.561999999999994ZM28.62558620689655,36.427586206896535a8.935,8.935,0,0,0,0.4509999999999934,-5.9339999999999975a9.138,9.138,0,0,0,-0.45599999999999596,-1.2710000000000008l13.973000000000006,-8.067999999999998a8.992,8.992,0,0,0,6.233999999999995,3.6140000000000043v3.0589999999999975h2v-3.0589999999999975a8.992,8.992,0,0,0,6.2339999999999804,-3.6099999999999994l13.972999999999978,8.06900000000001a9.2,9.2,0,0,0,-0.4560000000000173,1.2719999999999843a8.935,8.935,0,0,0,0.4490000000000123,5.927999999999997l-10.481999999999935,6.0570000000000235a13,13,0,0,0,-9.718000000000032,-5.606000000000009v-5.050999999999995h-2v5.050999999999995a13,13,0,0,0,-9.718000000000004,5.606000000000009ZM23.882586206896548,72.88958620689647a7,7,0,1,1,3.26100000000001,-4.249999999999972a6.99,6.99,0,0,1,-3.26100000000001,4.249999999999972ZM49.827586206896534,90.82758620689651a7,7,0,1,1,7.000000000000014,-7.000000000000028a7.008,7.008,0,0,1,-7.000000000000014,7.000000000000028ZM57.06158620689653,78.49658620689647a8.992,8.992,0,0,0,-6.233999999999995,-3.609999999999985v-3.059000000000026h-2v3.059000000000026a8.994,8.994,0,0,0,-6.234000000000009,3.6089999999999804l-13.972999999999999,-8.068000000000012a9.151,9.151,0,0,0,0.45600000000000307,-1.2719999999999914a8.932,8.932,0,0,0,-0.44899999999999807,-5.927999999999983l10.485,-6.052999999999955a13,13,0,0,0,9.715000000000003,5.60199999999999v5.0509999999999735h2v-5.0509999999999735a13,13,0,0,0,9.718000000000032,-5.606000000000009l10.481999999999935,6.056999999999974a8.932,8.932,0,0,0,-0.450999999999965,5.933000000000007a9.151,9.151,0,0,0,0.4560000000000173,1.271999999999963ZM85.33458620689652,70.32758620689646a7,7,0,0,1,-9.562000000000012,2.5619999999999834a7,7,0,0,1,-2.561999999999955,-9.561999999999856a7,7,0,0,1,12.123999999999967,6.999999999999872Z" class="cls-2" data-name="Path 18999" style="fill:#DDDCA2;"/></g>
</svg>