<svg xmlns="http://www.w3.org/2000/svg" width="100" height="100" viewBox="0 0 100 100"  xmlns:xlink="http://www.w3.org/1999/xlink"><rect id="svgEditorBackground" x="0" y="0" width="100" height="100" style="fill:none;stroke:none;"/>
    <defs>
        <style type="text/css">
            .cls-1{fill:#d6d6d6}.cls-2{fill:#666}.cls-3{fill:none}
        </style>
    </defs>
    <g id="ic_staking_off" transform="translate(-150)">
        <g id="Group_9010" data-name="Group 9010">
            <g id="Group_9005" data-name="Group 9005">
                <circle id="Ellipse_612" cx="14" cy="14" r="14" class="cls-1" data-name="Ellipse 612" transform="translate(186 56)" style="fill:#0be0cb;fill-opacity:0.62;"/>
                <path id="Rectangle_4658" d="M0,0h18v18h-18Z" class="cls-1" data-name="Rectangle 4658" transform="translate(191 28)" style="fill:#0BE0CB;fill-opacity:0.7;"/>
            </g>
            <g id="Group_9009" data-name="Group 9009">
                <g id="Group_9006" data-name="Group 9006">
                    <path id="Rectangle_4659" d="M0,0h2v4h-2Z" class="cls-2" data-name="Rectangle 4659" transform="translate(231 58)" style="fill:#839392;"/>
                    <path id="Path_18967" d="M231,91h-62v-7h-2v9h66v-27h-2Z" class="cls-2" data-name="Path 18967" style="fill:#839392;"/>
                    <path id="Rectangle_4660" d="M0,0h2v4h-2Z" class="cls-2" data-name="Rectangle 4660" transform="translate(167 76)" style="fill:#839392;"/>
                    <path id="Path_18968" d="M230,27v2h7v16h-27v-16h16v-2h-9.699999999999989a10.992,10.992,0,1,0,-16.30000000000001,-13.556000000000001a10.992,10.992,0,1,0,-16.30000000000001,13.556000000000001h-22.69999999999999v20h6v25h2v-25h62v7h2v-7h6v-20ZM210,9a9,9,0,0,1,0,18h-9v-9a9.01,9.01,0,0,1,9,-9ZM181,18a9,9,0,0,1,18,0v9h-9a9.01,9.01,0,0,1,-9,-9ZM167,45h-4v-16h27v16ZM192,45v-16h16v16Z" class="cls-2" data-name="Path 18968" style="fill:#839392;"/>
                </g>
                <g id="Group_9008" data-name="Group 9008">
                    <path id="Path_18969" d="M205,55.875v2.125a13,13,0,1,1,-10,0v-2.125a15,15,0,1,0,10,0Z" class="cls-2" data-name="Path 18969" style="fill:#839392;fill-opacity:1;"/>
                    <g id="Group_9007" data-name="Group 9007">
                        <path id="Rectangle_4661" d="M0,0h2v20h-2Z" class="cls-2" data-name="Rectangle 4661" transform="translate(199 52)" style="fill:#839392;"/>
                    </g>
                </g>
            </g>
        </g>
        <path id="Rectangle_4662" d="M0 0h100v100H0z" class="cls-3" data-name="Rectangle 4662" transform="translate(150)"/>
    </g>
</svg>